<svg width="372" height="372" viewBox="0 0 372 372" fill="none" xmlns="http://www.w3.org/2000/svg">
<path fill-rule="evenodd" clip-rule="evenodd" d="M186 355.5C186 364.613 178.588 372.076 169.51 371.279C74.509 362.933 0 283.168 0 186C0 83.275 83.2749 0 186 0C283.168 0 362.933 74.5091 371.279 169.51C372.076 178.588 364.613 186 355.5 186V186C346.387 186 339.093 178.587 338.123 169.526C329.907 92.7737 264.934 33 186 33C101.5 33 33 101.5 33 186C33 264.934 92.7738 329.907 169.526 338.123C178.587 339.093 186 346.387 186 355.5V355.5Z" fill="#818181"/>
</svg>
